<?xml version="1.0" encoding="UTF-8"?>
<!DOCTYPE svg PUBLIC "-//W3C//DTD SVG 1.1//EN" "http://www.w3.org/Graphics/SVG/1.1/DTD/svg11.dtd">
<svg version="1.1" xmlns="http://www.w3.org/2000/svg" xmlns:xlink="http://www.w3.org/1999/xlink" x="0" y="0" width="256" height="256" viewBox="0, 0, 256, 256">
  <g id="Layer_2">
    <g>
      <path d="M16.021,16 C16.021,16 18.579,240 16.021,240 C13.463,240 240.001,240 240.001,240 C240.001,240 90.67,128 90.67,128 C90.67,128 240.001,16 240.001,16 C240.001,16 16.021,17.535 16.021,16 z" fill="#363878"/>
      <path d="M252.111,11.917 L242.4,19.2 C241.234,20.075 241.234,20.075 235.984,24.012 C228.984,29.262 228.984,29.262 219.068,36.7 C202.805,48.897 186.542,61.094 170.28,73.291 C152.321,86.761 134.362,100.231 116.403,113.7 C106.486,121.137 106.486,121.137 99.487,126.387 C98.154,127.387 98.87,126.85 97.337,128 L99.487,129.613 C106.486,134.863 106.486,134.863 116.403,142.3 C132.666,154.497 148.928,166.694 165.191,178.892 C183.149,192.361 201.109,205.83 219.068,219.3 C228.984,226.738 228.984,226.738 235.984,231.988 C241.234,235.925 241.234,235.925 242.4,236.8 L252,244 C232.324,243.999 212.647,244 192.971,244 L15.999,244 L15.999,236 C13.226,235.983 12.777,235.964 12.3,238.704 C12.346,238.426 12.4,237.906 12.453,237.188 C12.568,235.648 12.669,233.322 12.757,230.261 C12.924,224.391 13.038,215.887 13.1,204.977 C13.21,185.746 13.16,159.509 12.98,128.023 C12.882,110.916 12.749,92.771 12.589,74.108 C12.465,59.592 12.332,45.594 12.199,32.634 C12.152,28.097 12.109,24.015 12.07,20.451 L12.056,19.167 C11.631,18.371 11.889,18.99 11.973,17.257 C11.993,16.839 12.005,16.419 12.021,16 L20.018,15.954 C19.925,14.902 20.516,13.911 20.282,12.851 C20.259,12.745 20.154,12.677 20.089,12.591 C19.003,12.192 19.703,12.393 17.935,12.216 C17.503,12.194 17.796,12.211 17.059,12.155 C17.814,12.202 17.523,12.175 17.935,12.216 L18.714,12.257 C20.283,12.327 22.63,12.388 25.713,12.441 C31.597,12.542 40.112,12.61 51.031,12.647 C70.269,12.713 96.508,12.683 127.997,12.575 C145.104,12.517 163.248,12.437 181.911,12.341 C196.427,12.266 210.424,12.187 223.385,12.107 C227.921,12.079 232.003,12.053 235.567,12.029 C236.815,12.021 237.908,12.014 238.839,12.008 C239.779,12.001 239.779,12.001 239.973,12 L252.111,11.917 z M240.001,16 C240.001,16 16.021,17.535 16.021,16 C16.021,16 18.579,240 16.021,240 C13.463,240 240.001,240 240.001,240 C240.001,240 90.67,128 90.67,128 C90.67,128 240.001,16 240.001,16 z" fill="#C5C5C5"/>
    </g>
  </g>
  <g id="Layer_5">
    <g>
      <path d="M104.6,152.5 L152.6,152.5 L152.6,168.5 L104.6,168.5 L104.6,152.5 z" fill="#9193D0"/>
      <path d="M104.6,152.5 L152.6,152.5 L152.6,168.5 L104.6,168.5 L104.6,152.5 z" fill-opacity="0" stroke="#000000" stroke-width="2"/>
    </g>
    <g>
      <path d="M104.6,184.5 L152.6,184.5 L152.6,200.5 L104.6,200.5 L104.6,184.5 z" fill="#9193D0"/>
      <path d="M104.6,184.5 L152.6,184.5 L152.6,200.5 L104.6,200.5 L104.6,184.5 z" fill-opacity="0" stroke="#000000" stroke-width="2"/>
    </g>
    <g>
      <path d="M104.6,216.5 L152.6,216.5 L152.4,232.5 L104.4,232.5 L104.6,216.5 z" fill="#9193D0"/>
      <path d="M104.6,216.5 L152.6,216.5 L152.4,232.5 L104.4,232.5 L104.6,216.5 z" fill-opacity="0" stroke="#000000" stroke-width="2"/>
    </g>
    <g>
      <path d="M72.4,232.5 L88.4,232.5 L88.6,152.5 L72.6,152.5 L56.6,168.5 L40.6,152.5 L24.4,152.5 L24.4,232.5 L40.4,232.5 L40.599,176.5 L56.599,192.5 L72.599,176.5 z" fill="#9193D0"/>
      <path d="M72.4,232.5 L88.4,232.5 L88.6,152.5 L72.6,152.5 L56.6,168.5 L40.6,152.5 L24.4,152.5 L24.4,232.5 L40.4,232.5 L40.599,176.5 L56.599,192.5 L72.599,176.5 z" fill-opacity="0" stroke="#000000" stroke-width="2"/>
    </g>
    <g>
      <path d="M216.4,232.5 L232.4,232.5 L232.6,152.5 L216.6,152.5 L200.6,168.5 L184.6,152.5 L168.4,152.5 L168.4,232.5 L184.4,232.5 L184.599,176.5 L200.599,192.5 L216.599,176.5 z" fill="#9193D0"/>
      <path d="M216.4,232.5 L232.4,232.5 L232.6,152.5 L216.6,152.5 L200.6,168.5 L184.6,152.5 L168.4,152.5 L168.4,232.5 L184.4,232.5 L184.599,176.5 L200.599,192.5 L216.599,176.5 z" fill-opacity="0" stroke="#000000" stroke-width="2"/>
    </g>
  </g>
</svg>
